<?xml version="1.0" encoding="UTF-8"?>
<svg version="1.1" xmlns="http://www.w3.org/2000/svg" xmlns:xlink="http://www.w3.org/1999/xlink" width="100%" height="100%" viewBox="-750 -1100 3600 6400">
 <title>tetracube categories</title>
 <desc>All 8 one-sided tetracubes, drawn by CMG Lee. The two tetracube at the bottom are chiral; if chirality is ignored, they count as the same tetracube, making a total of 7 free tetracubes.</desc>
 <defs>
  <filter id="filter_shadow" x="-50%" y="-50%" width="200%" height="200%">
   <feGaussianBlur in="SourceAlpha" stdDeviation="40"/>
   <feOffset dx="-10" dy="20"/>
   <feColorMatrix type="matrix" values="1,0,0,0,0 0,1,0,0,0 0,0,1,0,0 0,0,0,0.25,0"/>
   <feBlend in="SourceGraphic"/>
  </filter>
  <filter id="filter_left">
   <feColorMatrix in="SourceGraphic" type="matrix" values="0.7,0,0,0,0 0,0.7,0,0,0 0,0,0.7,0,0 0,0,0,1,0"/>
  </filter>
  <filter id="filter_right">
   <feColorMatrix in="SourceGraphic" type="matrix" values="0.5,0,0,0,0 0,0.5,0,0,0 0,0,0.5,0,0 0,0,0,1,0"/>
  </filter>
  <g id="c0">
   <rect transform="matrix( 4,-2 -3,-3 0,0)" x="0" y="0" rx="3" ry="3" width="100" height="100"/>
   <rect transform="matrix(-3,-3  0, 4 0,0)" x="0" y="0" rx="3" ry="3" width="100" height="100" filter="url(#filter_right)"/>
   <rect transform="matrix( 4,-2  0, 4 0,0)" x="0" y="0" rx="3" ry="3" width="100" height="100" filter="url(#filter_left)"/>
  </g>
  <g id="c1">
   <g filter="url(#filter_shadow)">
    <rect transform="matrix( 4,-2 -3,-3 0,400)" x="0" y="0" rx="3" ry="3" width="100" height="100"/>
   </g>
   <use xlink:href="#c0"/>
  </g>
  <g id="c2">
   <use xlink:href="#c1" x="400" y="-200"/>
   <use xlink:href="#c1"/>
  </g>
  <g id="c3">
   <use xlink:href="#c2" x="-300" y="-300"/>
   <use xlink:href="#c1" x="400" y="-200"/>
  </g>
 </defs>
 <circle cx="0" cy="0" r="99999" fill="#ffffff"/>
 <g stroke="#000000" stroke-opacity="0.25" stroke-width="2" stroke-linejoin="round">
  <g transform="translate(100,0)" fill="#ffee00">
   <use xlink:href="#c3"/>
   <use xlink:href="#c1"/>
  </g>
  <g transform="translate(1800,200)" fill="#ff99ff">
   <use xlink:href="#c1" x="500" y="-700"/>
   <use xlink:href="#c3"/>
  </g>
  <g transform="translate(550,1400)" fill="#00ccff">
   <use xlink:href="#c2" x="800" y="-400"/>
   <use xlink:href="#c2"/>
  </g>
  <g transform="translate(300,2500)" fill="#ff9900">
   <use xlink:href="#c1" x="-600" y="-600"/>
   <use xlink:href="#c1" x="-300" y="-300"/>
   <use xlink:href="#c2"/>
  </g>
  <g transform="translate(1700,2400)" fill="#00ff00">
   <use xlink:href="#c2" x="100" y="-500"/>
   <use xlink:href="#c2"/>
  </g>
  <g transform="translate(1000,4000)" fill="#996600">
   <use xlink:href="#c3"/>
   <use xlink:href="#c0" x="100" y="-900"/>
  </g>
  <g transform="translate(100,5000)" fill="#eeeeee">
   <use xlink:href="#c3"/>
   <use xlink:href="#c0" x="-300" y="-700"/>
  </g>
  <g transform="translate(1900,5000)" fill="#999999">
   <use xlink:href="#c3"/>
   <use xlink:href="#c0" x="400" y="-600"/>
  </g>
 </g>
</svg>
